<svg xmlns="http://www.w3.org/2000/svg" width="100" height="120" viewBox="0 0 100 120">
<defs>
<filter id="shadow" x="-20%" y="-20%" width="140%" height="140%"><feDropShadow dx="0" dy="4" stdDeviation="3" flood-color="#000" flood-opacity="0.35"/></filter>
<linearGradient id="body" x1="0" y1="0" x2="0" y2="1"><stop offset="0" stop-color="#92400e"/><stop offset="1" stop-color="#111827" stop-opacity="0.3"/></linearGradient>
</defs>
<ellipse cx="50" cy="108" rx="30" ry="8" fill="#000" opacity="0.25"/>
<g filter="url(#shadow)">
<path d="M82 32 C98 50 98 78 82 96" fill="none" stroke="#92400e" stroke-width="5" stroke-linecap="round"/><path d="M82 32 C87 50 87 78 82 96" fill="none" stroke="#f8fafc" stroke-width="1.5"/>
<path d="M30 59 C25 72 24 92 30 102 C38 109 62 109 70 102 C76 92 75 72 70 59 C62 52 38 52 30 59 Z" fill="url(#body)"/>
<path d="M36 62 L64 62 L60 88 L40 88 Z" fill="#86efac" opacity="0.85"/>
<path d="M28 66 C17 70 18 85 29 87" fill="none" stroke="#d8a47f" stroke-width="8" stroke-linecap="round"/>
<path d="M72 66 C83 70 82 85 71 87" fill="none" stroke="#d8a47f" stroke-width="8" stroke-linecap="round"/>
<path d="M38 99 C37 108 28 111 24 106" fill="none" stroke="#111827" stroke-width="8" stroke-linecap="round"/>
<path d="M62 99 C63 108 72 111 76 106" fill="none" stroke="#111827" stroke-width="8" stroke-linecap="round"/>
<circle cx="50" cy="38" r="24" fill="#d8a47f"/>
<path d="M30 29 C31 16 41 9 52 11 C64 13 70 21 69 33 C61 24 43 24 30 29 Z" fill="#92400e"/>
<path d="M30 35 C34 27 41 23 50 23 C60 23 67 28 70 36" fill="none" stroke="rgba(0,0,0,.18)" stroke-width="3" stroke-linecap="round"/>
<circle cx="42" cy="41" r="3" fill="#111827"/><circle cx="58" cy="41" r="3" fill="#111827"/>
<path d="M43 51 C48 55 54 55 59 51" fill="none" stroke="#7c2d12" stroke-width="2" stroke-linecap="round" opacity="0.75"/>
<circle cx="34" cy="43" r="4" fill="#fca5a5" opacity="0.35"/><circle cx="66" cy="43" r="4" fill="#fca5a5" opacity="0.35"/>
</g>
</svg>