<svg xmlns="http://www.w3.org/2000/svg" viewBox="0 0 64 64" role="img" aria-label="character">
  <defs>
    <filter id="s" x="-20%" y="-20%" width="140%" height="140%"><feDropShadow dx="0" dy="3" stdDeviation="2" flood-opacity=".35"/></filter>
  </defs>
  <ellipse cx="32" cy="59" rx="18" ry="4" fill="#000" opacity=".28"/>
  <g filter="url(#s)">
    
    <path d="M24 30 L40 30 L45 57 L35 57 L32 45 L29 57 L19 57 Z" fill="#1f2937"/>
    <path d="M20 31 C14 36 11 46 13 53 C14 57 19 58 21 54 L26 37 Z" fill="#f2c7a5"/>
    <path d="M44 31 C50 36 53 46 51 53 C50 57 45 58 43 54 L38 37 Z" fill="#f2c7a5"/>
    <path d="M22 28 L42 28 L44 47 L20 47 Z" fill="#2563eb"/>
    <rect x="25" y="35" width="14" height="4" rx="1" fill="#f5c95a" opacity=".9"/>
    <path d="M20 13 C24 5 40 5 45 13 C50 23 44 34 32 34 C20 34 15 23 20 13 Z" fill="#f2c7a5"/>
    <path d="M18 17 C22 6 37 5 47 15 C43 14 37 17 32 22 C27 26 23 27 18 25 Z" fill="#4a2415"/>
    <path d="M20 25 C19 33 17 43 12 51 C20 52 26 45 27 33 Z" fill="#4a2415" opacity=".92"/>
    <circle cx="27" cy="25" r="2.3" fill="#0f172a"/>
    <circle cx="38" cy="25" r="2.3" fill="#0f172a"/>
    <path d="M27 33 C30 35 35 35 38 33" fill="none" stroke="#7c2d12" stroke-width="1.7" stroke-linecap="round"/>
    
  </g>
</svg>