<svg xmlns="http://www.w3.org/2000/svg" width="100" height="120" viewBox="0 0 100 120">
<defs>
<filter id="shadow" x="-20%" y="-20%" width="140%" height="140%"><feDropShadow dx="0" dy="4" stdDeviation="3" flood-color="#000" flood-opacity="0.35"/></filter>
<linearGradient id="body" x1="0" y1="0" x2="0" y2="1"><stop offset="0" stop-color="#1f2937"/><stop offset="1" stop-color="#111827" stop-opacity="0.3"/></linearGradient>
</defs>
<ellipse cx="50" cy="108" rx="30" ry="8" fill="#000" opacity="0.25"/>
<g filter="url(#shadow)">
<g transform="rotate(28 82 72)"><rect x="80" y="50" width="4" height="30" rx="2" fill="#e5e7eb"/><rect x="76" y="76" width="12" height="4" rx="2" fill="#334155"/></g>
<path d="M30 59 C25 72 24 92 30 102 C38 109 62 109 70 102 C76 92 75 72 70 59 C62 52 38 52 30 59 Z" fill="url(#body)"/>
<path d="M36 62 L64 62 L60 88 L40 88 Z" fill="#ef4444" opacity="0.85"/>
<path d="M28 66 C17 70 18 85 29 87" fill="none" stroke="#b7795f" stroke-width="8" stroke-linecap="round"/>
<path d="M72 66 C83 70 82 85 71 87" fill="none" stroke="#b7795f" stroke-width="8" stroke-linecap="round"/>
<path d="M38 99 C37 108 28 111 24 106" fill="none" stroke="#111827" stroke-width="8" stroke-linecap="round"/>
<path d="M62 99 C63 108 72 111 76 106" fill="none" stroke="#111827" stroke-width="8" stroke-linecap="round"/>
<circle cx="50" cy="38" r="24" fill="#b7795f"/>
<path d="M28 35 C28 18 40 9 50 9 C60 9 72 18 72 35 C70 30 63 25 50 25 C37 25 30 30 28 35 Z" fill="#1f2937"/>
<path d="M30 35 C34 27 41 23 50 23 C60 23 67 28 70 36" fill="none" stroke="rgba(0,0,0,.18)" stroke-width="3" stroke-linecap="round"/>
<circle cx="42" cy="41" r="3" fill="#111827"/><circle cx="58" cy="41" r="3" fill="#111827"/>
<path d="M43 51 C48 55 54 55 59 51" fill="none" stroke="#7c2d12" stroke-width="2" stroke-linecap="round" opacity="0.75"/>
<circle cx="34" cy="43" r="4" fill="#fca5a5" opacity="0.35"/><circle cx="66" cy="43" r="4" fill="#fca5a5" opacity="0.35"/>
</g>
</svg>